<svg width="202" height="29" viewBox="0 0 202 29" fill="none" xmlns="http://www.w3.org/2000/svg">
<mask id="mask0_1013_6741" style="mask-type:luminance" maskUnits="userSpaceOnUse" x="0" y="0" width="32" height="29">
<path d="M0 0H31.45V28.571H0V0Z" fill="white"/>
</mask>
<g mask="url(#mask0_1013_6741)">
<path d="M30.4251 28.0962H1.02511C0.605108 28.0962 0.342108 27.6222 0.552108 27.2412L7.90211 14.0012L15.2531 0.763181C15.299 0.677465 15.3672 0.605803 15.4506 0.555842C15.534 0.50588 15.6294 0.479492 15.7266 0.479492C15.8238 0.479492 15.9192 0.50588 16.0026 0.555842C16.086 0.605803 16.1543 0.677465 16.2001 0.763181L20.9281 9.28018C19.3844 9.66536 18.0349 10.6016 17.1335 11.9126C16.232 13.2236 15.841 14.8189 16.034 16.3982C16.227 17.9774 16.9907 19.4316 18.1812 20.487C19.3718 21.5423 20.9071 22.126 22.4981 22.1282C24.2631 22.1282 25.8671 21.4282 27.0401 20.2852L30.9011 27.2412C31.1111 27.6192 30.8481 28.0952 30.4281 28.0952H30.4251V28.0962Z" fill="url(#paint0_linear_1013_6741)" stroke="url(#paint1_linear_1013_6741)" stroke-width="1.039" stroke-linecap="round" stroke-linejoin="round"/>
<path d="M28.437 18.303C27.9193 19.4436 27.084 20.411 26.0309 21.0894C24.9779 21.7677 23.7516 22.1283 22.499 22.128C21.6427 22.1282 20.7948 21.9598 20.0036 21.6322C19.2124 21.3046 18.4936 20.8244 17.8881 20.2189C17.2826 19.6134 16.8023 18.8945 16.4748 18.1034C16.1472 17.3122 15.9787 16.4642 15.979 15.608C15.9783 14.5051 16.2575 13.42 16.7904 12.4544C17.3234 11.4888 18.0926 10.6743 19.0261 10.087C19.9596 9.49966 21.0269 9.15883 22.128 9.09639C23.2291 9.03395 24.3281 9.25194 25.322 9.72995" stroke="url(#paint2_linear_1013_6741)" stroke-width="2" stroke-linecap="round" stroke-linejoin="round"/>
</g>
<path d="M42.89 20.7774C39.5071 20.7774 37.45 18.4231 37.45 15.1089C37.45 11.726 39.7357 9.34886 42.9585 9.34886C46.1585 9.34886 47.8042 11.246 48.0785 13.7603H45.3357C45.13 12.5946 44.4442 11.6574 43.0271 11.6574C41.3814 11.6574 40.2842 12.9146 40.2842 15.0631C40.2842 17.2117 41.3128 18.4689 43.0042 18.4689C44.49 18.4689 45.13 17.5546 45.3357 16.4346H48.0785C47.7814 18.8803 46.1128 20.7774 42.89 20.7774Z" fill="#242736"/>
<path d="M55.9226 9.34886C56.1969 9.34886 56.4712 9.39457 56.6083 9.41743L56.5855 12.1603C56.4255 12.0917 56.2426 12.046 55.8083 12.046C54.4369 12.046 53.2712 12.9831 53.0883 14.6746V20.6631H50.2998V9.46314H52.9741L53.0198 11.2689C53.5683 10.1489 54.4826 9.34886 55.9226 9.34886Z" fill="#242736"/>
<path d="M68.8737 18.3089L69.0566 20.5717C68.6223 20.686 68.1194 20.7774 67.548 20.7774C66.3366 20.7774 65.4451 20.1603 65.1251 18.9489C64.7594 19.6346 63.7766 20.7774 61.3766 20.7774C58.8851 20.7774 57.5823 19.5431 57.5823 17.7374C57.5823 15.086 60.2108 14.2174 63.2737 14.2174H65.0108V13.646C65.0108 12.3431 64.2337 11.5203 62.6794 11.5203C61.3537 11.5203 60.5308 12.1603 60.4166 13.2574H57.8566C58.0394 10.7431 59.9823 9.34886 62.8394 9.34886C66.0166 9.34886 67.7308 11.0174 67.7308 13.806V17.7374C67.7308 18.1717 67.9594 18.4231 68.3023 18.4231C68.4851 18.4231 68.6223 18.4003 68.8737 18.3089ZM62.108 18.6974C63.9366 18.6974 65.0108 17.5317 65.0108 16.5717V15.8403H63.1366C61.308 15.8403 60.3023 16.3889 60.3023 17.4403C60.3023 18.2403 60.8737 18.6974 62.108 18.6974Z" fill="#242736"/>
<path d="M83.5467 9.46314H86.4953L83.2496 20.6631H80.0496L78.2667 14.1489C78.1982 13.8517 78.0839 13.3031 78.061 13.0746H77.9925C77.9696 13.3031 77.8782 13.8517 77.8096 14.1489L76.0267 20.6631H72.8267L69.5582 9.46314H72.5067L74.221 16.6174C74.3353 17.166 74.4725 17.6231 74.5182 17.966H74.5867C74.6325 17.6231 74.7696 17.166 74.9067 16.6174L76.7353 9.46314H79.3182L81.1696 16.6174C81.3067 17.166 81.421 17.6231 81.4896 17.966H81.5582C81.6039 17.6231 81.6953 17.2117 81.8553 16.6174L83.5467 9.46314Z" fill="#242736"/>
<path d="M92.1308 18.3089L92.3137 20.5717C91.8794 20.686 91.3994 20.7774 90.7823 20.7774C89.1137 20.7774 88.2223 19.7489 88.2223 17.966V4.43457H90.988V17.7374C90.988 18.1717 91.2394 18.4231 91.5823 18.4231C91.7651 18.4231 91.8794 18.4003 92.1308 18.3089Z" fill="#242736"/>
<path d="M104.466 15.1317V15.7031H96.4428C96.6485 17.5317 97.7228 18.5603 99.3228 18.5603C100.991 18.5603 101.609 17.6917 101.791 17.006H104.42C104.031 18.9717 102.477 20.7774 99.2085 20.7774C95.78 20.7774 93.7 18.4003 93.7 15.086C93.7 11.7031 96.0314 9.34886 99.2314 9.34886C102.546 9.34886 104.466 11.6346 104.466 15.1317ZM99.2542 11.4974C97.86 11.4974 96.7857 12.3431 96.4885 13.9889H101.814C101.586 12.2746 100.649 11.4974 99.2542 11.4974Z" fill="#242736"/>
<path d="M116.943 15.1317V15.7031H108.92C109.126 17.5317 110.2 18.5603 111.8 18.5603C113.469 18.5603 114.086 17.6917 114.269 17.006H116.898C116.509 18.9717 114.955 20.7774 111.686 20.7774C108.258 20.7774 106.178 18.4003 106.178 15.086C106.178 11.7031 108.509 9.34886 111.709 9.34886C115.023 9.34886 116.943 11.6346 116.943 15.1317ZM111.732 11.4974C110.338 11.4974 109.263 12.3431 108.966 13.9889H114.292C114.063 12.2746 113.126 11.4974 111.732 11.4974Z" fill="#242736"/>
<path d="M128.02 10.2268C126.958 10.2268 126.469 10.8169 126.469 11.6599V12.4017H128.947V14.054H126.469V20.6631H124.429V14.054H123.248V12.4017H124.429V11.5925C124.429 9.75472 125.761 8.49022 127.75 8.49022C128.256 8.49022 128.846 8.57452 129.065 8.64196L128.998 10.3785C128.795 10.2942 128.374 10.2268 128.02 10.2268Z" fill="#242736"/>
<path d="M133.755 12.3174C136.284 12.3174 137.954 14.0034 137.954 16.5156C137.954 18.994 136.284 20.7474 133.755 20.7474C131.243 20.7474 129.557 19.0783 129.557 16.5999C129.557 14.1046 131.243 12.3174 133.755 12.3174ZM133.755 14.0203C132.474 14.0203 131.648 15.0488 131.648 16.5493C131.648 18.033 132.474 19.0446 133.755 19.0446C135.054 19.0446 135.863 18.033 135.863 16.5493C135.863 15.0488 135.054 14.0203 133.755 14.0203Z" fill="#242736"/>
<path d="M143.825 12.3174C144.028 12.3174 144.23 12.3512 144.331 12.368L144.314 14.3912C144.196 14.3406 144.061 14.3069 143.741 14.3069C142.729 14.3069 141.87 14.9982 141.735 16.2458V20.6631H139.678V12.4017H141.65L141.684 13.7337C142.089 12.9075 142.763 12.3174 143.825 12.3174Z" fill="#242736"/>
<path d="M153.903 9.09718C156.348 9.09718 157.949 10.3448 157.949 12.6546C157.949 14.9476 156.348 16.2627 153.903 16.2627H151.34V20.6631H149.283V9.09718H153.903ZM153.903 14.543C155.184 14.543 155.859 13.7505 155.859 12.6715C155.859 11.6093 155.184 10.8169 153.903 10.8169H151.34V14.543H153.903Z" fill="#242736"/>
<path d="M164.83 12.4017H166.921L163.869 20.6631L163.633 21.287C162.857 23.3439 162.014 24.1363 160.311 24.1363C159.806 24.1363 159.283 24.0689 158.98 23.9677L159.114 22.2311C159.367 22.3323 159.586 22.3997 159.907 22.3997C160.666 22.3997 161.272 22.1805 161.61 21.2195L161.745 20.8655L158.558 12.4017H160.8L162.554 17.7801C162.638 18.033 162.706 18.3196 162.79 18.7074H162.84C162.908 18.3196 162.975 18.0161 163.06 17.7801L164.83 12.4017Z" fill="#242736"/>
<path d="M173.237 18.8254L173.304 20.5283C173.018 20.6463 172.495 20.7474 171.905 20.7474C169.814 20.7474 168.617 19.5335 168.617 17.6958V14.0709H167.386V12.4017H168.735V10.0245H170.674V12.4017H173.186V14.054H170.674V17.6452C170.674 18.4545 171.062 19.0109 172.208 19.0109C172.579 19.0109 172.916 18.9603 173.237 18.8254Z" fill="#242736"/>
<path d="M179.335 12.3174C181.206 12.3174 182.268 13.6157 182.268 15.3354V20.6631H180.194V15.8412C180.194 14.7621 179.655 14.0877 178.626 14.0877C177.497 14.0877 176.772 14.8296 176.772 15.9761V20.6631H174.715V8.69254H176.738V13.6157C177.227 12.857 178.07 12.3174 179.335 12.3174Z" fill="#242736"/>
<path d="M188.106 12.3174C190.635 12.3174 192.304 14.0034 192.304 16.5156C192.304 18.994 190.635 20.7474 188.106 20.7474C185.594 20.7474 183.908 19.0783 183.908 16.5999C183.908 14.1046 185.594 12.3174 188.106 12.3174ZM188.106 14.0203C186.824 14.0203 185.998 15.0488 185.998 16.5493C185.998 18.033 186.824 19.0446 188.106 19.0446C189.404 19.0446 190.213 18.033 190.213 16.5493C190.213 15.0488 189.404 14.0203 188.106 14.0203Z" fill="#242736"/>
<path d="M198.665 12.3174C200.502 12.3174 201.581 13.5651 201.581 15.4703V20.6631H199.508V15.9423C199.508 14.779 198.968 14.0877 197.923 14.0877C196.81 14.0877 196.085 14.8464 196.085 15.9761V20.6631H194.028V12.4017H196.001L196.068 13.5988C196.557 12.8401 197.417 12.3174 198.665 12.3174Z" fill="#242736"/>
<defs>
<linearGradient id="paint0_linear_1013_6741" x1="30.9751" y1="0.47918" x2="3.49411" y2="30.8272" gradientUnits="userSpaceOnUse">
<stop stop-color="#9DCEFF"/>
<stop offset="0.7" stop-color="#4584B6"/>
<stop offset="1" stop-color="#4584B6"/>
</linearGradient>
<linearGradient id="paint1_linear_1013_6741" x1="30.9751" y1="0.47918" x2="3.49411" y2="30.8272" gradientUnits="userSpaceOnUse">
<stop stop-color="#4584B6"/>
</linearGradient>
<linearGradient id="paint2_linear_1013_6741" x1="28.437" y1="9.08895" x2="15.411" y2="21.533" gradientUnits="userSpaceOnUse">
<stop stop-color="#4584B6"/>
</linearGradient>
</defs>
</svg>
