<svg width="201" height="29" viewBox="0 0 201 29" fill="none" xmlns="http://www.w3.org/2000/svg">
    <mask id="mask0_1031_13355" style="mask-type:luminance" maskUnits="userSpaceOnUse" x="0" y="0" width="32" height="29">
        <path d="M0 0H31.45V28.571H0V0Z" fill="white"/>
    </mask>
    <g mask="url(#mask0_1031_13355)">
        <path d="M30.4251 28.0962H1.02511C0.605108 28.0962 0.342108 27.6222 0.552108 27.2412L7.90211 14.0012L15.2531 0.763181C15.299 0.677465 15.3672 0.605803 15.4506 0.555842C15.534 0.50588 15.6294 0.479492 15.7266 0.479492C15.8238 0.479492 15.9192 0.50588 16.0026 0.555842C16.086 0.605803 16.1543 0.677465 16.2001 0.763181L20.9281 9.28018C19.3844 9.66536 18.0349 10.6016 17.1335 11.9126C16.232 13.2236 15.841 14.8189 16.034 16.3982C16.227 17.9774 16.9907 19.4316 18.1812 20.487C19.3718 21.5423 20.9071 22.126 22.4981 22.1282C24.2631 22.1282 25.8671 21.4282 27.0401 20.2852L30.9011 27.2412C31.1111 27.6192 30.8481 28.0952 30.4281 28.0952H30.4251V28.0962Z" fill="url(#paint0_linear_1031_13355)" stroke="url(#paint1_linear_1031_13355)" stroke-width="1.039" stroke-linecap="round" stroke-linejoin="round"/>
        <path d="M28.437 18.303C27.9193 19.4436 27.084 20.411 26.0309 21.0894C24.9779 21.7677 23.7516 22.1283 22.499 22.128C21.6427 22.1282 20.7948 21.9598 20.0036 21.6322C19.2124 21.3046 18.4936 20.8244 17.8881 20.2189C17.2826 19.6134 16.8023 18.8945 16.4748 18.1034C16.1472 17.3122 15.9787 16.4642 15.979 15.608C15.9783 14.5051 16.2575 13.42 16.7904 12.4544C17.3234 11.4888 18.0926 10.6743 19.0261 10.087C19.9596 9.49966 21.0269 9.15883 22.128 9.09639C23.2291 9.03395 24.3281 9.25194 25.322 9.72995" stroke="url(#paint2_linear_1031_13355)" stroke-width="2" stroke-linecap="round" stroke-linejoin="round"/>
    </g>
    <path d="M42.89 21.2774C39.5071 21.2774 37.45 18.9231 37.45 15.6089C37.45 12.226 39.7357 9.84886 42.9585 9.84886C46.1585 9.84886 47.8042 11.746 48.0785 14.2603H45.3357C45.13 13.0946 44.4442 12.1574 43.0271 12.1574C41.3814 12.1574 40.2842 13.4146 40.2842 15.5631C40.2842 17.7117 41.3128 18.9689 43.0042 18.9689C44.49 18.9689 45.13 18.0546 45.3357 16.9346H48.0785C47.7814 19.3803 46.1128 21.2774 42.89 21.2774Z" fill="#242736"/>
    <path d="M55.9226 9.84886C56.1969 9.84886 56.4712 9.89457 56.6083 9.91743L56.5855 12.6603C56.4255 12.5917 56.2426 12.546 55.8083 12.546C54.4369 12.546 53.2712 13.4831 53.0883 15.1746V21.1631H50.2998V9.96314H52.9741L53.0198 11.7689C53.5683 10.6489 54.4826 9.84886 55.9226 9.84886Z" fill="#242736"/>
    <path d="M68.8737 18.8089L69.0566 21.0717C68.6223 21.186 68.1194 21.2774 67.548 21.2774C66.3366 21.2774 65.4451 20.6603 65.1251 19.4489C64.7594 20.1346 63.7766 21.2774 61.3766 21.2774C58.8851 21.2774 57.5823 20.0431 57.5823 18.2374C57.5823 15.586 60.2108 14.7174 63.2737 14.7174H65.0108V14.146C65.0108 12.8431 64.2337 12.0203 62.6794 12.0203C61.3537 12.0203 60.5308 12.6603 60.4166 13.7574H57.8566C58.0394 11.2431 59.9823 9.84886 62.8394 9.84886C66.0166 9.84886 67.7308 11.5174 67.7308 14.306V18.2374C67.7308 18.6717 67.9594 18.9231 68.3023 18.9231C68.4851 18.9231 68.6223 18.9003 68.8737 18.8089ZM62.108 19.1974C63.9366 19.1974 65.0108 18.0317 65.0108 17.0717V16.3403H63.1366C61.308 16.3403 60.3023 16.8889 60.3023 17.9403C60.3023 18.7403 60.8737 19.1974 62.108 19.1974Z" fill="#242736"/>
    <path d="M83.5467 9.96314H86.4953L83.2496 21.1631H80.0496L78.2667 14.6489C78.1982 14.3517 78.0839 13.8031 78.061 13.5746H77.9925C77.9696 13.8031 77.8782 14.3517 77.8096 14.6489L76.0267 21.1631H72.8267L69.5582 9.96314H72.5067L74.221 17.1174C74.3353 17.666 74.4725 18.1231 74.5182 18.466H74.5867C74.6325 18.1231 74.7696 17.666 74.9067 17.1174L76.7353 9.96314H79.3182L81.1696 17.1174C81.3067 17.666 81.421 18.1231 81.4896 18.466H81.5582C81.6039 18.1231 81.6953 17.7117 81.8553 17.1174L83.5467 9.96314Z" fill="#242736"/>
    <path d="M92.1308 18.8089L92.3137 21.0717C91.8794 21.186 91.3994 21.2774 90.7823 21.2774C89.1137 21.2774 88.2223 20.2489 88.2223 18.466V4.93457H90.988V18.2374C90.988 18.6717 91.2394 18.9231 91.5823 18.9231C91.7651 18.9231 91.8794 18.9003 92.1308 18.8089Z" fill="#242736"/>
    <path d="M104.466 15.6317V16.2031H96.4428C96.6485 18.0317 97.7228 19.0603 99.3228 19.0603C100.991 19.0603 101.609 18.1917 101.791 17.506H104.42C104.031 19.4717 102.477 21.2774 99.2085 21.2774C95.78 21.2774 93.7 18.9003 93.7 15.586C93.7 12.2031 96.0314 9.84886 99.2314 9.84886C102.546 9.84886 104.466 12.1346 104.466 15.6317ZM99.2542 11.9974C97.86 11.9974 96.7857 12.8431 96.4885 14.4889H101.814C101.586 12.7746 100.649 11.9974 99.2542 11.9974Z" fill="#242736"/>
    <path d="M116.943 15.6317V16.2031H108.92C109.126 18.0317 110.2 19.0603 111.8 19.0603C113.469 19.0603 114.086 18.1917 114.269 17.506H116.898C116.509 19.4717 114.955 21.2774 111.686 21.2774C108.258 21.2774 106.178 18.9003 106.178 15.586C106.178 12.2031 108.509 9.84886 111.709 9.84886C115.023 9.84886 116.943 12.1346 116.943 15.6317ZM111.732 11.9974C110.338 11.9974 109.263 12.8431 108.966 14.4889H114.292C114.063 12.7746 113.126 11.9974 111.732 11.9974Z" fill="#242736"/>
    <path d="M128.02 9.7268C126.958 9.7268 126.469 10.3169 126.469 11.1599V11.9017H128.947V13.554H126.469V20.1631H124.429V13.554H123.248V11.9017H124.429V11.0925C124.429 9.25472 125.761 7.99022 127.75 7.99022C128.256 7.99022 128.846 8.07452 129.065 8.14196L128.998 9.87854C128.795 9.79424 128.374 9.7268 128.02 9.7268Z" fill="#242736"/>
    <path d="M133.755 11.8174C136.284 11.8174 137.954 13.5034 137.954 16.0156C137.954 18.494 136.284 20.2474 133.755 20.2474C131.243 20.2474 129.557 18.5783 129.557 16.0999C129.557 13.6046 131.243 11.8174 133.755 11.8174ZM133.755 13.5203C132.474 13.5203 131.648 14.5488 131.648 16.0493C131.648 17.533 132.474 18.5446 133.755 18.5446C135.054 18.5446 135.863 17.533 135.863 16.0493C135.863 14.5488 135.054 13.5203 133.755 13.5203Z" fill="#242736"/>
    <path d="M143.825 11.8174C144.028 11.8174 144.23 11.8512 144.331 11.868L144.314 13.8912C144.196 13.8406 144.061 13.8069 143.741 13.8069C142.729 13.8069 141.87 14.4982 141.735 15.7458V20.1631H139.678V11.9017H141.65L141.684 13.2337C142.089 12.4075 142.763 11.8174 143.825 11.8174Z" fill="#242736"/>
    <path d="M153.684 11.8174C155.825 11.8174 157.326 13.3348 157.326 15.9144C157.326 18.4603 155.859 20.2474 153.6 20.2474C152.335 20.2474 151.509 19.7079 151.037 18.9324V23.552H148.997V11.9017H150.986L151.02 13.1662C151.526 12.3907 152.403 11.8174 153.684 11.8174ZM153.212 18.5109C154.426 18.5109 155.252 17.4993 155.252 15.9819C155.252 14.4982 154.459 13.554 153.229 13.554C151.779 13.554 151.037 14.7679 151.037 15.7795V16.2685C151.037 17.3307 151.796 18.5109 153.212 18.5109Z" fill="#242736"/>
    <path d="M164.188 11.9017H166.278L163.227 20.1631L162.991 20.787C162.215 22.8439 161.372 23.6363 159.669 23.6363C159.164 23.6363 158.641 23.5689 158.337 23.4677L158.472 21.7311C158.725 21.8323 158.944 21.8997 159.265 21.8997C160.023 21.8997 160.63 21.6805 160.968 20.7195L161.102 20.3655L157.916 11.9017H160.158L161.912 17.2801C161.996 17.533 162.063 17.8196 162.148 18.2074H162.198C162.266 17.8196 162.333 17.5161 162.418 17.2801L164.188 11.9017Z" fill="#242736"/>
    <path d="M172.595 18.3254L172.662 20.0283C172.375 20.1463 171.853 20.2474 171.263 20.2474C169.172 20.2474 167.975 19.0335 167.975 17.1958V13.5709H166.744V11.9017H168.093V9.52448H170.032V11.9017H172.544V13.554H170.032V17.1452C170.032 17.9545 170.42 18.5109 171.566 18.5109C171.937 18.5109 172.274 18.4603 172.595 18.3254Z" fill="#242736"/>
    <path d="M178.692 11.8174C180.564 11.8174 181.626 13.1157 181.626 14.8354V20.1631H179.552V15.3412C179.552 14.2621 179.013 13.5877 177.984 13.5877C176.855 13.5877 176.13 14.3296 176.13 15.4761V20.1631H174.073V8.19254H176.096V13.1157C176.585 12.357 177.428 11.8174 178.692 11.8174Z" fill="#242736"/>
    <path d="M187.464 11.8174C189.993 11.8174 191.662 13.5034 191.662 16.0156C191.662 18.494 189.993 20.2474 187.464 20.2474C184.952 20.2474 183.266 18.5783 183.266 16.0999C183.266 13.6046 184.952 11.8174 187.464 11.8174ZM187.464 13.5203C186.182 13.5203 185.356 14.5488 185.356 16.0493C185.356 17.533 186.182 18.5446 187.464 18.5446C188.762 18.5446 189.571 17.533 189.571 16.0493C189.571 14.5488 188.762 13.5203 187.464 13.5203Z" fill="#242736"/>
    <path d="M198.023 11.8174C199.86 11.8174 200.939 13.0651 200.939 14.9703V20.1631H198.866V15.4423C198.866 14.279 198.326 13.5877 197.281 13.5877C196.168 13.5877 195.443 14.3464 195.443 15.4761V20.1631H193.386V11.9017H195.359L195.426 13.0988C195.915 12.3401 196.775 11.8174 198.023 11.8174Z" fill="#242736"/>
    <defs>
        <linearGradient id="paint0_linear_1031_13355" x1="30.9751" y1="0.47918" x2="3.49411" y2="30.8272" gradientUnits="userSpaceOnUse">
            <stop stop-color="#9DCEFF"/>
            <stop offset="0.7" stop-color="#4584B6"/>
            <stop offset="1" stop-color="#4584B6"/>
        </linearGradient>
        <linearGradient id="paint1_linear_1031_13355" x1="30.9751" y1="0.47918" x2="3.49411" y2="30.8272" gradientUnits="userSpaceOnUse">
            <stop stop-color="#4584B6"/>
        </linearGradient>
        <linearGradient id="paint2_linear_1031_13355" x1="28.437" y1="9.08895" x2="15.411" y2="21.533" gradientUnits="userSpaceOnUse">
            <stop stop-color="#4584B6"/>
        </linearGradient>
    </defs>
</svg>
