<svg width="31" height="32" viewBox="0 0 31 32" fill="none" xmlns="http://www.w3.org/2000/svg">
<path d="M30.28 7.61333L23.0533 0.386667C22.805 0.140341 22.4698 0.00147283 22.12 0L6.66667 0C5.95942 0 5.28115 0.280952 4.78105 0.781049C4.28095 1.28115 4 1.95942 4 2.66667V10.3333C4 10.4217 4.03512 10.5065 4.09763 10.569C4.16014 10.6315 4.24493 10.6667 4.33333 10.6667H6.33333C6.42174 10.6667 6.50652 10.6315 6.56904 10.569C6.63155 10.5065 6.66667 10.4217 6.66667 10.3333V3.33333C6.66667 3.15652 6.7369 2.98695 6.86193 2.86193C6.98695 2.7369 7.15652 2.66667 7.33333 2.66667H21C21.0884 2.66667 21.1732 2.70179 21.2357 2.7643C21.2982 2.82681 21.3333 2.91159 21.3333 3V6.66667C21.3333 7.37391 21.6143 8.05219 22.1144 8.55229C22.6145 9.05238 23.2928 9.33333 24 9.33333H27.6667C27.7551 9.33333 27.8399 9.36845 27.9024 9.43096C27.9649 9.49348 28 9.57826 28 9.66667V28.6667C28 28.8435 27.9298 29.013 27.8047 29.1381C27.6797 29.2631 27.5101 29.3333 27.3333 29.3333H7C6.91159 29.3333 6.82681 29.2982 6.7643 29.2357C6.70179 29.1732 6.66667 29.0884 6.66667 29V28.3333C6.66667 28.2449 6.63155 28.1601 6.56904 28.0976C6.50652 28.0351 6.42174 28 6.33333 28H4.33333C4.24493 28 4.16014 28.0351 4.09763 28.0976C4.03512 28.1601 4 28.2449 4 28.3333V29.3333C4 30.0406 4.28095 30.7189 4.78105 31.219C5.28115 31.719 5.95942 32 6.66667 32H28C28.7072 32 29.3855 31.719 29.8856 31.219C30.3857 30.7189 30.6667 30.0406 30.6667 29.3333V8.54667C30.6652 8.19688 30.5263 7.86168 30.28 7.61333V7.61333Z" fill="#212322"/>
<path fill-rule="evenodd" clip-rule="evenodd" d="M26.6667 13.3333V25.3333C26.6667 25.687 26.5262 26.0261 26.2761 26.2761C26.0261 26.5262 25.687 26.6667 25.3333 26.6667H1.33333C0.979711 26.6667 0.64057 26.5262 0.390522 26.2761C0.140474 26.0261 0 25.687 0 25.3333V13.3333C0 12.9797 0.140474 12.6406 0.390522 12.3905C0.64057 12.1405 0.979711 12 1.33333 12H25.3333C25.687 12 26.0261 12.1405 26.2761 12.3905C26.5262 12.6406 26.6667 12.9797 26.6667 13.3333ZM8.36421 19.1975V16.2901H10.3333C10.7037 16.2819 11.0288 16.3662 11.3087 16.5432C11.4938 16.6502 11.6379 16.7963 11.7408 16.9815C11.8395 17.1872 11.8889 17.4403 11.8889 17.7407C11.8889 18.1029 11.7675 18.4321 11.5247 18.7284C11.2696 19.0329 10.8889 19.1893 10.3827 19.1975H8.36421ZM7.00001 15V24H8.36421V20.4876H10.4383C11.3642 20.4712 12.0679 20.1749 12.5494 19.5987C13.0185 19.0514 13.2531 18.4444 13.2531 17.7778C13.2531 17.2839 13.1605 16.8559 12.9753 16.4938C12.7984 16.1193 12.5679 15.8313 12.284 15.6296C11.9465 15.3621 11.6132 15.1852 11.284 15.0987C10.9547 15.0329 10.6132 15 10.2593 15H7.00001ZM16.0617 20.2963V24H17.3457V20.2963L20.0556 15H18.6111L16.7037 18.9938L14.7963 15H13.3519L16.0617 20.2963Z" fill="#212322"/>
</svg>
